<svg width="20" height="17" viewBox="0 0 20 17" fill="none" xmlns="http://www.w3.org/2000/svg">
<path fill-rule="evenodd" clip-rule="evenodd" d="M5 0.890625C2.37665 0.890625 0.25 3.01727 0.25 5.64062V11.6406C0.25 14.264 2.37665 16.3906 5 16.3906H15C17.5395 16.3906 19.6135 14.3978 19.7435 11.8906H19.7497V11.695C19.7499 11.6769 19.75 11.6588 19.75 11.6406V5.64062C19.75 5.62247 19.7499 5.60433 19.7497 5.58622V5.39062H19.7435C19.6135 2.88348 17.5395 0.890625 15 0.890625H5ZM18.2405 5.39062C18.1129 3.71251 16.7108 2.39062 15 2.39062H5C3.20507 2.39062 1.75 3.8457 1.75 5.64062V11.6406C1.75 13.4356 3.20507 14.8906 5 14.8906H15C16.7108 14.8906 18.1129 13.5687 18.2405 11.8906H14.5205C12.7256 11.8906 11.2705 10.4356 11.2705 8.64062C11.2705 6.8457 12.7256 5.39062 14.5205 5.39062H18.2405ZM12.7705 8.64062C12.7705 7.67413 13.554 6.89062 14.5205 6.89062H18.2497V10.3906H14.5205C13.554 10.3906 12.7705 9.60712 12.7705 8.64062Z" fill="white" fill-opacity="0.56"/>
</svg>
